<?xml version="1.0" standalone="no"?>
<!DOCTYPE svg PUBLIC "-//W3C//DTD SVG 20010904//EN"
 "http://www.w3.org/TR/2001/REC-SVG-20010904/DTD/svg10.dtd">
<svg version="1.0" xmlns="http://www.w3.org/2000/svg"
 width="1002.000000pt" height="1002.000000pt" viewBox="0 0 1002.000000 1002.000000"
 preserveAspectRatio="xMidYMid meet">
<metadata>
Created by potrace 1.14, written by Peter Selinger 2001-2017
</metadata>
<g transform="translate(0.000000,1002.000000) scale(0.100000,-0.100000)"
fill="#000000" stroke="none">
<path d="M3911 10004 c-81 -21 -165 -70 -221 -130 -228 -241 -133 -639 178
-748 179 -64 370 -15 497 127 160 177 154 443 -12 623 -103 112 -293 166 -442
128z"/>
<path d="M4643 9968 c-12 -6 -26 -22 -31 -37 -5 -14 -8 -189 -8 -388 l1 -361
24 -21 c13 -12 29 -22 35 -22 6 -1 169 -2 361 -3 373 -2 391 0 412 46 7 16 11
148 11 383 l-1 359 -28 28 -27 28 -364 -1 c-234 0 -371 -4 -385 -11z"/>
<path d="M5643 9956 l-28 -24 -1 -359 c-2 -392 1 -413 52 -430 16 -5 186 -9
385 -8 380 1 370 -1 396 50 7 13 10 150 10 378 l0 359 -24 29 -25 29 -368 0
-369 0 -28 -24z"/>
<path d="M3623 8946 l-28 -24 -1 -371 -1 -371 23 -25 c13 -14 29 -26 36 -26
64 -6 704 -2 727 4 57 14 58 26 58 417 0 210 -4 364 -9 376 -19 42 -43 44
-418 44 l-359 0 -28 -24z"/>
<path d="M4643 8958 c-12 -6 -25 -18 -29 -27 -4 -9 -8 -181 -9 -383 -1 -363
-1 -367 20 -394 l22 -28 359 -1 c197 -1 369 2 382 7 58 20 57 9 58 412 l2 370
-28 28 -28 28 -364 -1 c-234 0 -371 -4 -385 -11z"/>
<path d="M3623 7936 l-28 -24 -1 -369 c-1 -400 -1 -402 54 -420 15 -5 187 -9
382 -8 l356 1 24 24 25 25 1 370 1 369 -28 28 -27 28 -366 0 -365 0 -28 -24z"/>
<path d="M4633 7936 l-28 -24 -1 -364 c-1 -388 1 -408 48 -424 34 -12 719 -12
745 -1 50 22 51 27 50 417 l0 364 -28 28 -27 28 -366 0 -365 0 -28 -24z"/>
<path d="M5643 7936 l-28 -24 -1 -354 c-1 -194 1 -366 4 -381 11 -60 21 -62
401 -62 190 -1 360 3 377 7 60 16 59 7 60 415 l1 373 -29 25 -30 25 -363 0
-364 0 -28 -24z"/>
<path d="M3623 6926 l-28 -24 -1 -371 -1 -372 23 -24 c13 -14 31 -25 41 -26
106 -6 705 -3 726 4 53 17 55 31 54 422 l0 359 -28 28 -27 28 -366 0 -365 0
-28 -24z"/>
<path d="M4631 6923 l-27 -28 0 -365 c1 -333 3 -368 19 -393 9 -15 25 -28 35
-28 93 -6 714 -3 735 4 53 17 55 30 55 420 l0 358 -25 30 -25 29 -370 0 -370
0 -27 -27z"/>
<path d="M3446 5511 c-60 -21 -118 -68 -140 -115 -22 -48 -26 -132 -8 -181 30
-79 73 -116 222 -191 86 -44 130 -83 130 -118 0 -25 -22 -66 -36 -66 -7 0 -14
-5 -16 -10 -4 -12 -97 -15 -150 -6 -20 4 -65 18 -99 32 -35 13 -65 24 -69 24
-3 0 -5 -37 -5 -82 l1 -82 54 -20 c44 -16 80 -20 175 -21 105 0 126 3 170 23
97 45 141 108 144 210 4 120 -42 174 -227 269 -52 26 -103 58 -113 72 -24 30
-24 69 1 101 17 23 25 25 97 24 53 -1 95 -7 131 -22 49 -19 54 -19 59 -4 4 9
17 41 29 70 l23 53 -27 11 c-122 48 -257 60 -346 29z"/>
<path d="M7530 5516 c-106 -30 -182 -91 -225 -182 -35 -74 -44 -124 -43 -243
1 -285 144 -427 418 -417 117 4 187 29 251 88 88 83 119 164 123 328 6 203
-76 354 -223 412 -67 26 -230 33 -301 14z m215 -150 c48 -20 71 -44 97 -101
20 -43 23 -66 23 -165 -1 -95 -4 -123 -22 -161 -36 -79 -95 -120 -176 -120
-152 -1 -225 96 -221 289 4 182 72 272 207 272 32 0 73 -6 92 -14z"/>
<path d="M1980 5098 l0 -418 89 0 88 0 1 403 c0 221 -2 410 -5 420 -4 16 -15
18 -89 15 l-84 -2 0 -418z"/>
<path d="M2372 5098 l0 -418 80 0 80 0 -4 315 c-1 172 0 311 3 307 5 -7 294
-505 336 -582 l20 -35 114 0 114 0 1 405 c0 223 -1 410 -4 417 -2 7 -26 12
-65 12 -101 -1 -93 25 -90 -266 1 -142 4 -282 5 -311 4 -52 3 -53 -14 -30 -10
13 -18 27 -18 31 0 4 -15 31 -33 60 -18 29 -67 111 -108 182 -40 72 -78 137
-84 146 -5 9 -21 36 -34 60 -13 24 -37 63 -53 86 l-29 43 -108 -2 -109 -2 0
-418z"/>
<path d="M3890 5444 l0 -74 115 0 116 0 -1 -252 c0 -139 0 -295 0 -345 l0 -93
88 0 89 0 0 343 -1 342 112 3 c79 2 112 6 113 15 1 7 2 40 3 74 l1 61 -317 0
-318 0 0 -74z"/>
<path d="M4658 5511 c0 -3 -2 -192 -3 -418 l-1 -413 88 0 88 0 0 419 0 419
-85 0 c-47 0 -86 -3 -87 -7z"/>
<path d="M4962 5489 c3 -16 2 -29 -1 -29 -4 0 -5 -20 -3 -45 l4 -45 113 0 114
0 0 -317 c0 -175 0 -331 0 -346 l1 -28 88 3 87 3 0 340 0 340 113 3 112 3 0
73 0 73 -316 0 -316 0 4 -28z"/>
<path d="M5724 5510 c-5 -5 -7 -141 -4 -317 5 -287 6 -311 26 -353 48 -103
142 -159 279 -168 178 -10 300 50 359 178 19 42 20 64 21 355 l0 310 -87 2
-88 1 0 -286 c0 -260 -2 -291 -19 -329 -22 -47 -54 -72 -103 -80 -18 -3 -35
-5 -38 -6 -3 0 -26 2 -52 7 -64 10 -104 50 -114 114 -4 26 -8 166 -8 312 l-1
265 -81 2 c-45 1 -85 -2 -90 -7z"/>
<path d="M6534 5444 l0 -73 114 -3 114 -3 -1 -130 c-1 -71 -2 -137 -1 -145 0
-8 0 -104 0 -212 l0 -198 90 0 90 0 0 345 0 345 114 0 114 0 -2 73 -1 72 -315
1 -315 1 -1 -73z"/>
<path d="M2589 4512 l-26 -3 1 -417 1 -417 70 0 c111 -1 102 -15 103 161 1 86
4 159 6 163 3 4 64 7 136 7 109 -1 133 1 138 14 6 13 7 50 3 113 -1 15 -15 17
-141 17 -105 0 -140 3 -141 13 -3 60 1 191 6 196 4 3 68 7 143 8 75 0 142 2
147 2 11 1 14 125 4 135 -6 6 -407 13 -450 8z"/>
<path d="M3253 4512 l-42 -3 2 -417 2 -417 238 0 c153 0 237 3 238 10 1 5 2
38 3 73 l1 62 -35 1 c-19 0 -87 1 -150 2 l-115 2 0 105 0 105 125 2 c69 1 132
2 140 2 14 1 18 51 11 136 -1 6 -54 10 -141 9 l-141 -1 3 91 3 91 130 1 c72 1
139 2 150 3 19 1 21 8 22 71 l1 70 -37 0 c-20 0 -110 2 -201 3 -91 1 -184 1
-207 -1z"/>
<path d="M4756 4512 c-15 -3 -16 -38 -14 -420 l3 -417 238 0 237 0 1 35 c0 19
2 48 3 63 1 15 -1 33 -5 38 -4 7 -60 11 -153 11 -105 -1 -146 3 -147 11 -1 14
-1 189 0 198 1 3 63 6 139 6 l137 0 3 71 c2 53 0 72 -10 73 -7 0 -70 1 -140 1
-86 1 -128 5 -129 12 -1 13 -1 135 0 157 1 13 22 15 151 15 127 -1 150 1 151
14 1 8 2 41 2 72 l2 57 -226 3 c-124 2 -233 2 -243 0z"/>
<path d="M5428 4512 c-16 -2 -28 -6 -29 -10 0 -4 -1 -190 -2 -414 -1 -265 2
-409 8 -411 9 -3 131 -2 160 2 7 1 11 56 10 158 l0 157 47 1 47 1 93 -149 c51
-82 96 -154 100 -161 5 -7 71 -11 202 -11 l195 0 20 65 c11 36 23 77 27 93 3
15 11 30 17 34 6 4 77 7 157 7 l145 1 18 -60 c10 -33 24 -78 30 -100 l12 -40
93 0 c63 -1 92 3 92 11 0 6 -18 62 -41 125 -22 63 -55 157 -73 209 -19 52 -64
181 -101 285 -37 105 -71 195 -76 200 -6 6 -55 10 -111 10 l-101 0 -13 -30
c-13 -31 -25 -63 -30 -80 -1 -5 -26 -75 -54 -155 -28 -80 -79 -221 -112 -315
-33 -93 -67 -189 -75 -213 -9 -24 -19 -40 -23 -35 -22 23 -230 338 -230 347 0
6 18 22 40 36 74 45 110 122 103 219 -8 114 -72 181 -198 210 -47 10 -289 20
-347 13z m302 -161 c43 -18 58 -35 63 -76 12 -87 -39 -130 -157 -134 l-61 -2
1 113 c1 62 2 113 3 114 7 5 132 -7 151 -15z m800 -159 c27 -90 50 -165 50
-166 0 -6 -195 -3 -207 3 -10 5 -10 12 0 31 8 14 18 43 24 65 17 63 63 218 69
235 8 18 3 31 64 -168z"/>
<path d="M3872 4093 l3 -418 150 1 c198 1 254 9 338 51 131 65 196 182 202
358 5 168 -62 302 -185 369 -82 45 -147 55 -338 56 l-172 0 2 -417z m358 262
c98 -31 141 -103 147 -242 7 -195 -75 -287 -259 -291 l-68 -2 0 268 c0 148 3
271 6 274 8 8 144 3 174 -7z"/>
<path d="M6989 4483 c-3 -143 0 -793 4 -799 4 -7 479 -12 508 -5 8 1 5 128 -3
136 -3 4 -79 7 -169 8 l-163 2 0 343 0 342 -88 0 -88 0 -1 -27z"/>
<path d="M5560 3342 c-12 -3 -82 -99 -98 -134 -2 -5 10 -8 26 -8 24 0 41 12
86 61 31 34 56 65 56 69 0 9 -48 17 -70 12z"/>
<path d="M4174 3299 c-93 -16 -170 -66 -211 -137 -77 -130 -61 -323 34 -423
67 -71 119 -88 258 -84 64 1 127 9 150 17 l39 15 1 142 c0 79 -2 147 -5 151
-3 5 -51 10 -107 12 -96 3 -102 2 -106 -18 -8 -42 4 -50 76 -49 l67 2 0 -98 0
-98 -37 -7 c-112 -22 -218 0 -273 58 -48 49 -64 98 -64 203 0 69 4 87 28 132
32 59 84 98 148 112 61 14 152 4 219 -24 12 -5 19 2 28 26 6 18 11 33 11 35 0
5 -65 24 -105 30 -60 10 -106 10 -151 3z"/>
<path d="M5125 3293 c-20 -46 12 -89 52 -70 25 11 32 54 11 75 -18 18 -55 15
-63 -5z"/>
<path d="M4695 3129 c-58 -22 -70 -32 -102 -86 -21 -36 -34 -92 -35 -148 -1
-38 17 -107 38 -142 86 -148 304 -134 379 24 21 44 26 145 11 205 -33 126
-167 194 -291 147z m160 -69 c45 -28 60 -70 60 -170 0 -94 -12 -125 -62 -157
-33 -22 -106 -25 -144 -6 -42 21 -71 84 -74 159 -3 77 15 131 55 167 39 35
115 38 165 7z"/>
<path d="M5485 3142 c-11 -2 -42 -10 -68 -19 -45 -14 -48 -17 -42 -42 4 -14 8
-27 9 -28 1 -1 24 4 51 13 67 20 119 20 148 1 24 -16 44 -57 41 -87 -1 -8 -2
-20 -3 -26 -1 -6 -29 -11 -67 -12 -108 -3 -190 -32 -220 -77 -9 -14 -18 -44
-19 -68 -5 -93 56 -148 161 -143 59 2 134 34 134 57 0 22 19 6 25 -20 4 -20
13 -30 30 -33 13 -3 26 0 28 6 2 6 3 95 2 198 -2 180 -3 188 -26 223 -16 23
-36 39 -59 45 -44 12 -99 17 -125 12z m138 -297 c-3 -50 -30 -97 -66 -117 -58
-31 -150 -16 -161 25 -24 91 25 133 158 136 l72 2 -3 -46z"/>
<path d="M5960 3142 c-118 -14 -179 -100 -129 -181 14 -24 40 -42 97 -67 140
-63 152 -71 152 -116 0 -58 -106 -86 -203 -53 -54 18 -69 14 -63 -18 3 -12 5
-25 5 -28 2 -15 114 -31 174 -26 105 9 157 54 157 134 0 69 -43 107 -174 154
-57 21 -99 63 -91 91 4 13 14 29 23 36 19 15 113 16 165 1 33 -9 41 -8 53 8 7
10 14 21 14 25 1 23 -115 49 -180 40z"/>
<path d="M5129 3137 c-1 -1 -3 -110 -4 -243 l-1 -240 35 6 36 5 0 234 0 234
-32 3 c-18 1 -34 2 -34 1z"/>
<path d="M1568 2172 c-16 -19 5 -31 62 -32 25 0 52 -1 60 -1 8 0 44 0 80 0 36
0 72 0 80 0 8 -1 332 -1 720 -1 388 1 712 1 720 0 8 0 44 1 80 1 36 0 72 0 80
0 8 -1 188 -1 400 -1 212 1 392 1 400 1 8 -1 44 0 80 0 36 0 72 0 80 0 8 -1
332 -1 720 -1 388 1 712 1 720 0 8 0 44 1 80 1 36 0 72 0 80 0 8 -1 188 -1
400 -1 212 1 392 1 400 1 8 -1 44 0 80 0 36 0 72 0 80 0 8 -1 344 0 747 0 627
1 732 4 737 16 3 8 0 18 -7 22 -7 4 -1555 8 -3440 8 -2894 1 -3430 -1 -3439
-13z"/>
<path d="M4043 1786 c-29 -36 -53 -67 -53 -70 0 -12 59 -6 67 7 4 7 23 25 42
39 l35 26 44 -39 c30 -26 54 -39 74 -39 33 0 32 6 -20 62 -19 21 -41 47 -49
58 -10 14 -25 20 -51 20 -33 0 -42 -7 -89 -64z"/>
<path d="M3603 1805 c-70 -16 -128 -56 -164 -113 -41 -64 -52 -112 -52 -217 0
-74 5 -100 25 -145 45 -101 115 -149 228 -159 72 -7 167 4 187 21 7 6 13 22
13 35 0 24 -2 25 -37 18 -75 -15 -162 -14 -203 2 -88 35 -139 129 -135 248 3
98 21 144 76 197 43 41 57 48 107 54 40 5 75 2 117 -9 59 -15 60 -15 77 6 10
12 16 27 14 32 -9 31 -169 50 -253 30z"/>
<path d="M4085 1653 c-29 -6 -78 -25 -92 -35 -9 -7 -9 -16 -1 -33 l10 -23 52
17 c111 38 174 12 182 -75 l4 -44 -37 -1 c-196 -3 -279 -54 -270 -167 5 -73
44 -113 116 -120 72 -7 116 5 156 40 19 16 35 28 36 27 0 -2 2 -12 4 -22 7
-36 13 -44 37 -42 l23 2 0 196 c0 183 -1 197 -21 224 -11 15 -32 34 -46 40
-26 13 -119 23 -153 16z m148 -296 c-2 -80 -52 -128 -134 -129 -72 -1 -110 48
-87 112 14 42 82 67 178 66 l45 -1 -2 -48z"/>
<path d="M4614 1649 c-17 -5 -43 -20 -57 -35 -24 -24 -26 -24 -35 -7 -5 10 -7
24 -5 31 3 8 -6 12 -26 12 -18 0 -32 -5 -32 -12 -7 -74 -2 -451 6 -456 14 -9
55 -10 60 -2 2 4 5 76 5 161 1 103 6 165 15 186 37 87 178 94 203 11 6 -18 10
-102 9 -186 -1 -85 1 -159 5 -165 8 -12 56 -18 63 -7 2 4 5 76 6 161 2 167 11
207 54 235 47 31 136 21 162 -18 4 -7 10 -96 13 -197 l5 -185 33 -2 c37 -3 34
-22 33 234 -1 128 -3 148 -22 182 -25 44 -60 62 -128 65 -54 3 -115 -19 -145
-53 l-19 -21 -19 24 c-11 14 -28 30 -39 35 -26 14 -108 19 -145 9z"/>
<path d="M5429 1643 c-19 -8 -44 -24 -56 -35 l-23 -21 -6 31 c-6 27 -11 32
-35 32 l-29 0 0 -343 0 -344 35 0 c40 0 38 -10 37 160 -1 113 0 116 38 77 15
-16 67 -30 111 -30 63 0 108 19 141 58 39 46 53 97 52 193 0 118 -36 187 -114
221 -38 16 -113 17 -151 1z m110 -59 c31 -12 45 -26 62 -60 42 -88 19 -235
-43 -278 -13 -10 -43 -16 -74 -16 -95 0 -135 64 -129 204 4 89 24 129 74 150
47 19 62 19 110 0z"/>
<path d="M6440 1649 c-88 -24 -126 -99 -87 -171 15 -28 34 -43 81 -63 34 -15
77 -34 96 -42 51 -22 70 -43 70 -73 0 -34 -19 -59 -50 -66 -48 -11 -126 -6
-164 10 -21 9 -40 16 -42 16 -2 0 -4 -15 -4 -33 0 -28 5 -35 33 -45 49 -18
166 -17 210 1 60 26 87 62 87 118 0 62 -31 99 -107 129 -144 58 -170 79 -152
127 16 43 122 52 210 18 10 -4 19 3 27 20 16 34 17 32 -20 44 -48 16 -148 21
-188 10z"/>
<path d="M5819 1618 c-3 -118 0 -304 6 -334 3 -20 12 -45 18 -56 20 -33 81
-58 141 -58 66 0 102 12 139 48 l27 26 0 -32 c0 -18 5 -33 10 -33 13 -2 38 -2
48 0 4 0 7 107 7 236 l0 235 -36 0 -36 0 0 -132 c0 -145 -7 -215 -26 -238 -43
-56 -144 -69 -194 -26 l-28 24 -3 186 -4 186 -34 0 c-32 0 -34 -2 -35 -32z"/>
<path d="M5829 826 c-5 -6 -25 -35 -44 -65 -36 -55 -35 -74 6 -64 20 6 99 86
117 120 10 18 8 20 -30 20 -22 0 -44 -5 -49 -11z"/>
<path d="M4239 753 c0 -21 0 -168 0 -327 0 -159 -4 -299 -9 -312 -12 -31 -43
-46 -96 -46 -42 0 -44 -1 -44 -28 0 -33 11 -39 77 -36 62 2 116 39 133 92 9
26 13 136 13 363 l0 326 -37 3 c-36 3 -36 3 -37 -35z"/>
<path d="M4997 735 c-9 -9 -21 -33 -27 -55 -6 -24 -18 -41 -30 -45 -22 -7 -50
-32 -50 -45 0 -5 15 -10 33 -12 l32 -3 3 -158 c3 -179 12 -216 62 -242 31 -16
119 -23 139 -10 6 3 11 18 11 31 0 22 -4 25 -32 24 -56 -3 -67 -1 -88 22 -18
20 -20 35 -20 181 l0 159 33 -2 c17 -1 49 -2 69 -1 33 1 37 4 36 29 -1 27 -2
27 -67 27 l-66 0 -3 50 c-4 59 -13 72 -35 50z"/>
<path d="M4533 623 c-43 -15 -53 -32 -35 -61 7 -10 16 -10 49 2 52 18 111 22
145 8 28 -12 52 -65 46 -104 -3 -20 -9 -22 -78 -25 -94 -4 -159 -25 -196 -64
-25 -26 -29 -38 -29 -83 1 -92 53 -140 152 -137 58 1 100 18 133 53 11 12 21
19 21 15 1 -4 3 -11 4 -17 1 -5 3 -16 4 -24 1 -17 26 -27 46 -19 14 5 16 31
14 187 -2 206 -11 240 -73 270 -43 20 -145 20 -203 -1z m198 -233 c16 0 0 -93
-20 -120 -52 -72 -189 -70 -203 4 -6 32 15 82 42 96 23 12 137 30 158 24 8 -2
18 -4 23 -4z"/>
<path d="M5360 632 c-8 -2 -30 -11 -48 -18 -30 -12 -32 -15 -21 -36 6 -13 13
-24 14 -26 1 -1 21 5 45 13 74 26 150 18 168 -18 18 -36 24 -97 9 -98 -6 -1
-34 -3 -62 -4 -180 -9 -253 -70 -230 -192 11 -61 63 -93 150 -94 57 -1 85 10
127 48 l27 25 6 -34 c6 -34 9 -36 56 -29 3 1 5 83 4 184 -1 215 -9 245 -77
272 -38 15 -130 19 -168 7z m173 -253 c7 -25 -7 -84 -28 -115 -21 -32 -58 -47
-115 -46 -70 1 -100 48 -77 118 10 27 49 45 117 53 93 10 98 10 103 -10z"/>
<path d="M5752 401 l3 -235 33 -1 c28 -1 32 3 33 25 1 39 1 424 0 435 -1 6
-17 10 -36 11 l-36 0 3 -235z"/>
</g>
</svg>
